{"scene":0,"asset":{"generator":"ImageToStl.com","version":"2.0"},"scenes":[{"name":"Scene","nodes":[0]}],"nodes":[{"name":"Node0","children":[1]},{"name":"Node1","mesh":0,"NodeMesh":{"CalculatedWidth":243.30765533447266,"CalculatedHeight":64.00000190734863,"CalculatedDepth":37.675129890441895,"MaxDimension":243.30765533447266}}],"materials":[{"name":"x1","pbrMetallicRoughness":{"baseColorFactor":[0.85,0.85,0.85,1],"metallicFactor":0.05,"roughnessFactor":0.5},"doubleSided":true}],"meshes":[{"name":"Mesh0","primitives":[{"indices":2,"material":0,"attributes":{"POSITION":0,"NORMAL":1}}]}],"accessors":[{"bufferView":0,"componentType":5126,"count":5110829,"type":"VEC3","min":[84.70277,-30.43733,10.602199],"max":[158.60489,33.56267,27.072931]},{"bufferView":1,"componentType":5126,"count":5110829,"type":"VEC3"},{"bufferView":2,"componentType":5125,"count":5563248,"type":"SCALAR"}],"bufferViews":[{"buffer":0,"byteLength":61329948,"byteOffset":0},{"buffer":0,"byteLength":61329948,"byteOffset":61329948},{"buffer":0,"byteLength":22252992,"byteOffset":122659896}],"buffers":[{"byteLength":144912888,"uri":"model.bin"}]}