{
  "asset": {
    "generator": "glTF-Transform v4.3.0",
    "version": "2.0"
  },
  "accessors": [
    {
      "type": "SCALAR",
      "componentType": 5125,
      "count": 257190,
      "normalized": false,
      "byteOffset": 0,
      "bufferView": 0
    },
    {
      "type": "VEC3",
      "componentType": 5120,
      "count": 201225,
      "normalized": true,
      "byteOffset": 0,
      "bufferView": 1
    },
    {
      "type": "VEC3",
      "componentType": 5122,
      "count": 201225,
      "max": [
        28363,
        5116,
        32767
      ],
      "min": [
        -28363,
        -5116,
        -32767
      ],
      "normalized": true,
      "byteOffset": 0,
      "bufferView": 2
    }
  ],
  "bufferViews": [
    {
      "buffer": 1,
      "byteOffset": 0,
      "byteLength": 1028760,
      "target": 34963,
      "extensions": {
        "EXT_meshopt_compression": {
          "buffer": 0,
          "byteOffset": 0,
          "byteLength": 86718,
          "mode": "TRIANGLES",
          "byteStride": 4,
          "count": 257190
        }
      }
    },
    {
      "buffer": 1,
      "byteOffset": 1028760,
      "byteLength": 804900,
      "target": 34962,
      "byteStride": 4,
      "extensions": {
        "EXT_meshopt_compression": {
          "buffer": 0,
          "byteOffset": 86720,
          "byteLength": 221127,
          "mode": "ATTRIBUTES",
          "filter": "OCTAHEDRAL",
          "byteStride": 4,
          "count": 201225
        }
      }
    },
    {
      "buffer": 1,
      "byteOffset": 1833660,
      "byteLength": 1609800,
      "target": 34962,
      "byteStride": 8,
      "extensions": {
        "EXT_meshopt_compression": {
          "buffer": 0,
          "byteOffset": 307848,
          "byteLength": 901311,
          "mode": "ATTRIBUTES",
          "byteStride": 8,
          "count": 201225
        }
      }
    }
  ],
  "buffers": [
    {
      "uri": "desert.bin",
      "byteLength": 1209160
    },
    {
      "byteLength": 3443460,
      "extensions": {
        "EXT_meshopt_compression": {
          "fallback": true
        }
      }
    }
  ],
  "materials": [
    {
      "name": "x1",
      "doubleSided": true,
      "pbrMetallicRoughness": {
        "baseColorFactor": [
          0.85,
          0.85,
          0.85,
          1
        ],
        "roughnessFactor": 0.5,
        "metallicFactor": 0.05
      }
    }
  ],
  "meshes": [
    {
      "name": "Mesh0",
      "primitives": [
        {
          "attributes": {
            "NORMAL": 1,
            "POSITION": 2
          },
          "mode": 4,
          "material": 0,
          "indices": 0
        }
      ]
    }
  ],
  "nodes": [
    {
      "name": "Node1",
      "translation": [
        1.449997901916504,
        5.69099998474121,
        20.149999618530273
      ],
      "scale": [
        36.44999885559082,
        36.44999885559082,
        36.44999885559082
      ],
      "mesh": 0
    }
  ],
  "scenes": [
    {
      "name": "Scene",
      "nodes": [
        0
      ]
    }
  ],
  "scene": 0,
  "extensionsUsed": [
    "EXT_meshopt_compression",
    "KHR_mesh_quantization"
  ],
  "extensionsRequired": [
    "EXT_meshopt_compression",
    "KHR_mesh_quantization"
  ]
}