{
  "asset": {
    "generator": "glTF-Transform v4.3.0",
    "version": "2.0"
  },
  "accessors": [
    {
      "type": "SCALAR",
      "componentType": 5125,
      "count": 387942,
      "normalized": false,
      "byteOffset": 0,
      "bufferView": 0
    },
    {
      "type": "VEC3",
      "componentType": 5120,
      "count": 298444,
      "normalized": true,
      "byteOffset": 0,
      "bufferView": 1
    },
    {
      "type": "VEC3",
      "componentType": 5122,
      "count": 298444,
      "max": [
        28383,
        6460,
        32767
      ],
      "min": [
        -28383,
        -6460,
        -32767
      ],
      "normalized": true,
      "byteOffset": 0,
      "bufferView": 2
    }
  ],
  "bufferViews": [
    {
      "buffer": 1,
      "byteOffset": 0,
      "byteLength": 1551768,
      "target": 34963,
      "extensions": {
        "EXT_meshopt_compression": {
          "buffer": 0,
          "byteOffset": 0,
          "byteLength": 130601,
          "mode": "TRIANGLES",
          "byteStride": 4,
          "count": 387942
        }
      }
    },
    {
      "buffer": 1,
      "byteOffset": 1551768,
      "byteLength": 1193776,
      "target": 34962,
      "byteStride": 4,
      "extensions": {
        "EXT_meshopt_compression": {
          "buffer": 0,
          "byteOffset": 130604,
          "byteLength": 325458,
          "mode": "ATTRIBUTES",
          "filter": "OCTAHEDRAL",
          "byteStride": 4,
          "count": 298444
        }
      }
    },
    {
      "buffer": 1,
      "byteOffset": 2745544,
      "byteLength": 2387552,
      "target": 34962,
      "byteStride": 8,
      "extensions": {
        "EXT_meshopt_compression": {
          "buffer": 0,
          "byteOffset": 456064,
          "byteLength": 1395371,
          "mode": "ATTRIBUTES",
          "byteStride": 8,
          "count": 298444
        }
      }
    }
  ],
  "buffers": [
    {
      "uri": "ore.bin",
      "byteLength": 1851436
    },
    {
      "byteLength": 5133096,
      "extensions": {
        "EXT_meshopt_compression": {
          "fallback": true
        }
      }
    }
  ],
  "materials": [
    {
      "name": "x1",
      "doubleSided": true,
      "pbrMetallicRoughness": {
        "baseColorFactor": [
          0.85,
          0.85,
          0.85,
          1
        ],
        "roughnessFactor": 0.5,
        "metallicFactor": 0.05
      }
    }
  ],
  "meshes": [
    {
      "name": "Mesh0",
      "primitives": [
        {
          "attributes": {
            "NORMAL": 1,
            "POSITION": 2
          },
          "mode": 4,
          "material": 0,
          "indices": 0
        }
      ]
    }
  ],
  "nodes": [
    {
      "name": "Node1",
      "translation": [
        51.46500015258789,
        44.56500053405762,
        -89.9890022277832
      ],
      "scale": [
        45.643001556396484,
        45.643001556396484,
        45.643001556396484
      ],
      "mesh": 0
    }
  ],
  "scenes": [
    {
      "name": "Scene",
      "nodes": [
        0
      ]
    }
  ],
  "scene": 0,
  "extensionsUsed": [
    "EXT_meshopt_compression",
    "KHR_mesh_quantization"
  ],
  "extensionsRequired": [
    "EXT_meshopt_compression",
    "KHR_mesh_quantization"
  ]
}