{
  "asset": {
    "generator": "glTF-Transform v4.3.0",
    "version": "2.0"
  },
  "accessors": [
    {
      "type": "SCALAR",
      "componentType": 5125,
      "count": 1258557,
      "normalized": false,
      "byteOffset": 0,
      "bufferView": 0
    },
    {
      "type": "VEC3",
      "componentType": 5120,
      "count": 1191611,
      "normalized": true,
      "byteOffset": 0,
      "bufferView": 1
    },
    {
      "type": "VEC3",
      "componentType": 5122,
      "count": 1191611,
      "max": [
        32767,
        7168,
        28407
      ],
      "min": [
        -32767,
        -7168,
        -28407
      ],
      "normalized": true,
      "byteOffset": 0,
      "bufferView": 2
    }
  ],
  "bufferViews": [
    {
      "buffer": 1,
      "byteOffset": 0,
      "byteLength": 5034228,
      "target": 34963,
      "extensions": {
        "EXT_meshopt_compression": {
          "buffer": 0,
          "byteOffset": 0,
          "byteLength": 422585,
          "mode": "TRIANGLES",
          "byteStride": 4,
          "count": 1258557
        }
      }
    },
    {
      "buffer": 1,
      "byteOffset": 5034228,
      "byteLength": 4766444,
      "target": 34962,
      "byteStride": 4,
      "extensions": {
        "EXT_meshopt_compression": {
          "buffer": 0,
          "byteOffset": 422588,
          "byteLength": 1262030,
          "mode": "ATTRIBUTES",
          "filter": "OCTAHEDRAL",
          "byteStride": 4,
          "count": 1191611
        }
      }
    },
    {
      "buffer": 1,
      "byteOffset": 9800672,
      "byteLength": 9532888,
      "target": 34962,
      "byteStride": 8,
      "extensions": {
        "EXT_meshopt_compression": {
          "buffer": 0,
          "byteOffset": 1684620,
          "byteLength": 4233082,
          "mode": "ATTRIBUTES",
          "byteStride": 8,
          "count": 1191611
        }
      }
    }
  ],
  "buffers": [
    {
      "uri": "ore_harbour.bin",
      "byteLength": 5917704
    },
    {
      "byteLength": 19333560,
      "extensions": {
        "EXT_meshopt_compression": {
          "fallback": true
        }
      }
    }
  ],
  "materials": [
    {
      "name": "x1",
      "doubleSided": true,
      "pbrMetallicRoughness": {
        "baseColorFactor": [
          0.85,
          0.85,
          0.85,
          1
        ],
        "roughnessFactor": 0.5,
        "metallicFactor": 0.05
      }
    }
  ],
  "meshes": [
    {
      "name": "Mesh0",
      "primitives": [
        {
          "attributes": {
            "NORMAL": 1,
            "POSITION": 2
          },
          "mode": 4,
          "material": 0,
          "indices": 0
        }
      ]
    }
  ],
  "nodes": [
    {
      "name": "Node1",
      "translation": [
        121.65382766723633,
        18.43584394454956,
        -1.528336524963379
      ],
      "scale": [
        36.9510612487793,
        36.9510612487793,
        36.9510612487793
      ],
      "mesh": 0
    }
  ],
  "scenes": [
    {
      "name": "Scene",
      "nodes": [
        0
      ]
    }
  ],
  "scene": 0,
  "extensionsUsed": [
    "EXT_meshopt_compression",
    "KHR_mesh_quantization"
  ],
  "extensionsRequired": [
    "EXT_meshopt_compression",
    "KHR_mesh_quantization"
  ]
}