{"scene":0,"asset":{"generator":"ImageToStl.com","version":"2.0"},"scenes":[{"name":"Scene","nodes":[0]}],"nodes":[{"name":"Node0","children":[1]},{"name":"Node1","mesh":0,"NodeMesh":{"CalculatedWidth":76.70244407653809,"CalculatedHeight":11.492117166519165,"CalculatedDepth":20.175922393798828,"MaxDimension":76.70244407653809}}],"materials":[{"name":"mat0","pbrMetallicRoughness":{"baseColorFactor":[0.85,0.85,0.85,1],"metallicFactor":0.05,"roughnessFactor":0.5},"emissiveFactor":[0,0,0],"doubleSided":true}],"meshes":[{"name":"Mesh0","primitives":[{"indices":2,"material":0,"attributes":{"POSITION":0,"NORMAL":1}}]}],"accessors":[{"bufferView":0,"componentType":5126,"count":7473702,"type":"VEC3","min":[26.702444,3.3423302,-10.580591],"max":[50,8.149787,9.595331]},{"bufferView":1,"componentType":5126,"count":7473702,"type":"VEC3"},{"bufferView":2,"componentType":5125,"count":7676904,"type":"SCALAR"}],"bufferViews":[{"buffer":0,"byteLength":89684424,"byteOffset":0},{"buffer":0,"byteLength":89684424,"byteOffset":89684424},{"buffer":0,"byteLength":30707616,"byteOffset":179368848}],"buffers":[{"byteLength":210076464,"uri":"model.bin"}]}