{
  "asset": {
    "generator": "glTF-Transform v4.3.0",
    "version": "2.0"
  },
  "accessors": [
    {
      "type": "SCALAR",
      "componentType": 5125,
      "count": 511230,
      "normalized": false,
      "byteOffset": 0,
      "bufferView": 0
    },
    {
      "type": "VEC3",
      "componentType": 5120,
      "count": 323358,
      "normalized": true,
      "byteOffset": 0,
      "bufferView": 1
    },
    {
      "type": "VEC3",
      "componentType": 5122,
      "count": 323358,
      "max": [
        28383,
        6112,
        32767
      ],
      "min": [
        -28383,
        -6112,
        -32767
      ],
      "normalized": true,
      "byteOffset": 0,
      "bufferView": 2
    }
  ],
  "bufferViews": [
    {
      "buffer": 1,
      "byteOffset": 0,
      "byteLength": 2044920,
      "target": 34963,
      "extensions": {
        "EXT_meshopt_compression": {
          "buffer": 0,
          "byteOffset": 0,
          "byteLength": 172796,
          "mode": "TRIANGLES",
          "byteStride": 4,
          "count": 511230
        }
      }
    },
    {
      "buffer": 1,
      "byteOffset": 2044920,
      "byteLength": 1293432,
      "target": 34962,
      "byteStride": 4,
      "extensions": {
        "EXT_meshopt_compression": {
          "buffer": 0,
          "byteOffset": 172796,
          "byteLength": 296755,
          "mode": "ATTRIBUTES",
          "filter": "OCTAHEDRAL",
          "byteStride": 4,
          "count": 323358
        }
      }
    },
    {
      "buffer": 1,
      "byteOffset": 3338352,
      "byteLength": 2586864,
      "target": 34962,
      "byteStride": 8,
      "extensions": {
        "EXT_meshopt_compression": {
          "buffer": 0,
          "byteOffset": 469552,
          "byteLength": 1382293,
          "mode": "ATTRIBUTES",
          "byteStride": 8,
          "count": 323358
        }
      }
    }
  ],
  "buffers": [
    {
      "uri": "wood.bin",
      "byteLength": 1851848
    },
    {
      "byteLength": 5925216,
      "extensions": {
        "EXT_meshopt_compression": {
          "fallback": true
        }
      }
    }
  ],
  "materials": [
    {
      "name": "x1",
      "doubleSided": true,
      "pbrMetallicRoughness": {
        "baseColorFactor": [
          0.85,
          0.85,
          0.85,
          1
        ],
        "roughnessFactor": 0.5,
        "metallicFactor": 0.05
      }
    }
  ],
  "meshes": [
    {
      "name": "Mesh0",
      "primitives": [
        {
          "attributes": {
            "NORMAL": 1,
            "POSITION": 2
          },
          "mode": 4,
          "material": 0,
          "indices": 0
        }
      ]
    }
  ],
  "nodes": [
    {
      "name": "Node1",
      "translation": [
        163,
        8.506499969458673,
        141.99985885620117
      ],
      "scale": [
        45.59413528442383,
        45.59413528442383,
        45.59413528442383
      ],
      "mesh": 0
    }
  ],
  "scenes": [
    {
      "name": "Scene",
      "nodes": [
        0
      ]
    }
  ],
  "scene": 0,
  "extensionsUsed": [
    "EXT_meshopt_compression",
    "KHR_mesh_quantization"
  ],
  "extensionsRequired": [
    "EXT_meshopt_compression",
    "KHR_mesh_quantization"
  ]
}